<?xml version="1.0" encoding="UTF-8"?>
<svg width="90px" height="90px" viewBox="0 0 90 90" version="1.1" xmlns="http://www.w3.org/2000/svg" xmlns:xlink="http://www.w3.org/1999/xlink">
    <!-- Generator: Sketch 53.2 (72643) - https://sketchapp.com -->
    <title>App Icon</title>
    <desc>Created with Sketch.</desc>
    <defs>
        <path d="M17.0895772,1.08591747e-15 L42.9104228,6.90439374e-16 C48.8528411,-4.0116516e-16 51.0077056,0.618729126 53.1801649,1.78057308 C55.3526242,2.94241704 57.057583,4.64737582 58.2194269,6.81983513 C59.3812709,8.99229444 60,11.1471589 60,17.0895772 L60,42.9104228 C60,48.8528411 59.3812709,51.0077056 58.2194269,53.1801649 C57.057583,55.3526242 55.3526242,57.057583 53.1801649,58.2194269 C51.0077056,59.3812709 48.8528411,60 42.9104228,60 L17.0895772,60 C11.1471589,60 8.99229444,59.3812709 6.81983513,58.2194269 C4.64737582,57.057583 2.94241704,55.3526242 1.78057308,53.1801649 C0.618729126,51.0077056 2.04380028e-15,48.8528411 1.31606392e-15,42.9104228 L4.60292916e-16,17.0895772 C-2.6744344e-16,11.1471589 0.618729126,8.99229444 1.78057308,6.81983513 C2.94241704,4.64737582 4.64737582,2.94241704 6.81983513,1.78057308 C8.99229444,0.618729126 11.1471589,2.177522e-15 17.0895772,1.08591747e-15 Z" id="path-1"></path>
        <filter x="-37.5%" y="-37.5%" width="175.0%" height="175.0%" filterUnits="objectBoundingBox" id="filter-3">
            <feOffset dx="0" dy="0" in="SourceAlpha" result="shadowOffsetOuter1"></feOffset>
            <feGaussianBlur stdDeviation="7.5" in="shadowOffsetOuter1" result="shadowBlurOuter1"></feGaussianBlur>
            <feColorMatrix values="0 0 0 0 0   0 0 0 0 0   0 0 0 0 0  0 0 0 0.2 0" type="matrix" in="shadowBlurOuter1"></feColorMatrix>
        </filter>
        <linearGradient x1="50%" y1="0%" x2="50%" y2="100%" id="linearGradient-4">
            <stop stop-color="#113A4C" offset="0%"></stop>
            <stop stop-color="#2C3E50" offset="100%"></stop>
        </linearGradient>
    </defs>
    <g id="Page-1" stroke="none" stroke-width="1" fill="none" fill-rule="evenodd">
        <g id="iOS-App-Icon-Template" transform="translate(-448.000000, -640.000000)">
            <g id="App-Icon" transform="translate(459.000000, 655.000000)">
                <g transform="translate(4.000000, 0.000000)">
                    <mask id="mask-2" fill="white">
                        <use xlink:href="#path-1"></use>
                    </mask>
                    <g id="Mask" fill="black" fill-opacity="1">
                        <use filter="url(#filter-3)" xlink:href="#path-1"></use>
                    </g>
                    <g id="Icon" mask="url(#mask-2)">
                        <rect id="Background" fill="url(#linearGradient-4)" x="0" y="0" width="60" height="60"></rect>
                        <g id="Smooth-Corners" fill="#000000">
                            <path d="M17.1259519,-6.91908956e-16 C11.1708853,4.02019029e-16 9.0114343,0.620046074 6.83435096,1.78436298 C4.65726763,2.94867989 2.94867989,4.65726763 1.78436298,6.83435096 C0.620046074,9.0114343 -2.68012686e-16,11.1708853 4.61272637e-16,17.1259519 L0,0 L17.1259519,0 Z M42.8740481,0 L60,0 L60,17.1259519 C60,11.1708853 59.3799539,9.0114343 58.215637,6.83435096 C57.0513201,4.65726763 55.3427324,2.94867989 53.165649,1.78436298 C50.9885657,0.620046074 48.8291147,-4.02019029e-16 42.8740481,6.91908956e-16 Z M60,42.8740481 L60,60 L42.8740481,60 C48.8291147,60 50.9885657,59.3799539 53.165649,58.215637 C55.3427324,57.0513201 57.0513201,55.3427324 58.215637,53.165649 C59.3799539,50.9885657 60,48.8291147 60,42.8740481 Z M17.1259519,60 L0,60 L0,42.8740481 C2.68012686e-16,48.8291147 0.620046074,50.9885657 1.78436298,53.165649 C2.94867989,55.3427324 4.65726763,57.0513201 6.83435096,58.215637 C9.0114343,59.3799539 11.1708853,60 17.1259519,60 Z"></path>
                        </g>
                        <g id="LightningIcon" opacity="0.716610863" transform="translate(18.515625, 7.851563)" fill="#FC1B28" stroke="#FC1B28" stroke-width="0.5">
                            <path d="M22.1854725,25.9410821 C22.1923689,25.9601789 22.1943894,25.9813184 22.190316,26.0027096 C22.1857466,26.0267048 22.1737936,26.0486724 22.1561277,26.0655414 L20.9037531,27.2614367 L20.3927306,27.7878631 C20.3821443,27.7851509 20.3715622,27.7824392 20.3609841,27.7797281 L3.11754069,44.2455309 C3.07069037,44.290268 2.99644408,44.2885549 2.95170696,44.2417046 C2.92352751,44.212194 2.91270957,44.1701593 2.92314217,44.1307117 C6.09782307,32.1266426 7.12049317,25.4605486 5.99115245,24.1324296 C5.54396442,23.6065308 5.08514137,23.2937062 4.76503863,23.0727125 C1.71523578,21.8653565 0.129286837,20.841703 0.00719178751,20.001752 C-0.249159612,18.2381866 6.34772676,11.580235 19.7978509,0.0278972168 L19.7980898,0.0281753865 C19.8470333,-0.0138622105 19.9207879,-0.00826393632 19.9628255,0.0406794818 C19.986565,0.0683187945 19.9960495,0.1054516 19.9884723,0.141089793 C17.6601474,11.0921244 16.4433275,16.8757493 16.3380127,17.4919645 C16.17842,18.425769 16.17842,18.8113142 16.4244343,19.4016935 C16.6704485,19.9920727 17.3329424,20.7247512 17.8384282,21.2046633 C18.1534437,21.5037414 19.8025161,22.5296001 22.7856456,24.2822394 L22.7856164,24.2822892 C23.0646021,24.446198 23.1578904,24.8052351 22.9939815,25.0842208 C22.9702737,25.1245733 22.9418163,25.1619397 22.9092176,25.195521 L22.1854725,25.9410821 Z" id="Lightning"></path>
                        </g>
                    </g>
                </g>
            </g>
        </g>
    </g>
</svg>