<svg width="90" height="90" viewBox="0 0 90 90" xmlns="http://www.w3.org/2000/svg" xmlns:xlink="http://www.w3.org/1999/xlink"><defs><path d="M17.09 0h25.82c5.943 0 8.098.619 10.27 1.78a12.113 12.113 0 0 1 5.04 5.04C59.38 8.992 60 11.147 60 17.09v25.82c0 5.943-.619 8.098-1.78 10.27a12.113 12.113 0 0 1-5.04 5.04C51.008 59.38 48.853 60 42.91 60H17.09c-5.943 0-8.098-.619-10.27-1.78a12.113 12.113 0 0 1-5.04-5.04C.62 51.008 0 48.853 0 42.91V17.09c0-5.943.619-8.098 1.78-10.27a12.113 12.113 0 0 1 5.04-5.04C8.992.62 11.147 0 17.09 0z" id="a"/><filter x="-37.5%" y="-37.5%" width="175%" height="175%" filterUnits="objectBoundingBox" id="b"><feOffset in="SourceAlpha" result="shadowOffsetOuter1"/><feGaussianBlur stdDeviation="7.5" in="shadowOffsetOuter1" result="shadowBlurOuter1"/><feColorMatrix values="0 0 0 0 0 0 0 0 0 0 0 0 0 0 0 0 0 0 0.2 0" in="shadowBlurOuter1"/></filter><linearGradient x1="50%" y1="0%" x2="50%" y2="100%" id="d"><stop stop-color="#113A4C" offset="0%"/><stop stop-color="#2C3E50" offset="100%"/></linearGradient></defs><g transform="translate(15 15)" fill="none" fill-rule="evenodd"><mask id="c" fill="#fff"><use xlink:href="#a"/></mask><use filter="url(#b)" xlink:href="#a" fill="#000"/><g mask="url(#c)"><path fill="url(#d)" d="M0 0h60v60H0z"/><path d="M17.126 0C11.171 0 9.011.62 6.834 1.784a12.139 12.139 0 0 0-5.05 5.05C.62 9.011 0 11.171 0 17.126V0h17.126zm25.748 0H60v17.126c0-5.955-.62-8.115-1.784-10.292a12.139 12.139 0 0 0-5.05-5.05C50.989.62 48.829 0 42.874 0zM60 42.874V60H42.874c5.955 0 8.115-.62 10.292-1.784a12.139 12.139 0 0 0 5.05-5.05C59.38 50.989 60 48.829 60 42.874zM17.126 60H0V42.874c0 5.955.62 8.115 1.784 10.292a12.139 12.139 0 0 0 5.05 5.05C9.011 59.38 11.171 60 17.126 60z" fill="#000"/><path d="M40.701 33.793a.117.117 0 0 1-.03.124l-1.252 1.196-.51.526-.032-.008-17.244 16.466a.117.117 0 0 1-.194-.115c3.174-12.004 4.197-18.67 3.068-19.998-.447-.526-.906-.839-1.226-1.06-3.05-1.207-4.636-2.23-4.758-3.07-.257-1.764 6.34-8.422 19.79-19.975h0a.117.117 0 0 1 .191.114c-2.328 10.95-3.545 16.734-3.65 17.35-.16.934-.16 1.32.086 1.91.246.59.909 1.323 1.414 1.803.315.3 1.964 1.325 4.947 3.078h0a.586.586 0 0 1 .124.913l-.724.746z" opacity=".717" fill="#FC1B28" stroke="#FC1B28" stroke-width=".5"/></g></g></svg>